<svg viewBox="0 0 200 200" xmlns="http://www.w3.org/2000/svg">
  <!-- Fondo gradiente azul y morado -->
  <defs>
    <linearGradient id="gradHola" x1="0%" y1="0%" x2="100%" y2="100%">
      <stop offset="0%" style="stop-color:#6366f1;stop-opacity:1" />
      <stop offset="100%" style="stop-color:#8b5cf6;stop-opacity:1" />
    </linearGradient>
  </defs>
  
  <!-- Círculo de fondo -->
  <circle cx="100" cy="100" r="100" fill="url(#gradHola)"/>
  
  <!-- Cabeza -->
  <circle cx="100" cy="70" r="35" fill="#fdbf24"/>
  
  <!-- Orejas -->
  <circle cx="70" cy="60" r="12" fill="#fdbf24"/>
  <circle cx="130" cy="60" r="12" fill="#fdbf24"/>
  
  <!-- Ojos -->
  <circle cx="90" cy="65" r="4" fill="#1f2937"/>
  <circle cx="110" cy="65" r="4" fill="#1f2937"/>
  
  <!-- Brillo ojos -->
  <circle cx="91" cy="64" r="1.5" fill="white"/>
  <circle cx="111" cy="64" r="1.5" fill="white"/>
  
  <!-- Nariz -->
  <path d="M 100 75 L 98 80 L 102 80 Z" fill="#f59e0b"/>
  
  <!-- Sonrisa -->
  <path d="M 90 85 Q 100 92 110 85" stroke="#1f2937" stroke-width="2" fill="none" stroke-linecap="round"/>
  
  <!-- Cuerpo -->
  <rect x="75" y="105" width="50" height="60" rx="10" fill="#3b82f6"/>
  
  <!-- Brazos -->
  <rect x="50" y="115" width="25" height="15" rx="7" fill="#fdbf24"/>
  <rect x="125" y="115" width="25" height="15" rx="7" fill="#fdbf24"/>
  
  <!-- Manos -->
  <circle cx="50" cy="135" r="8" fill="#fdbf24"/>
  <circle cx="150" cy="135" r="8" fill="#fdbf24"/>
  
  <!-- Piernas -->
  <rect x="85" y="165" width="12" height="30" fill="#1f2937"/>
  <rect x="103" y="165" width="12" height="30" fill="#1f2937"/>
  
  <!-- Pies -->
  <ellipse cx="91" cy="195" rx="10" ry="6" fill="#1f2937"/>
  <ellipse cx="109" cy="195" rx="10" ry="6" fill="#1f2937"/>
</svg>
